<svg version="1.1" xmlns="http://www.w3.org/2000/svg" xmlns:xlink="http://www.w3.org/1999/xlink" width="27.34756" height="49"><g transform="translate(-225.9113,-83.08334)"><g data-paper-data="{&quot;isPaintingLayer&quot;:true}" fill="none" fill-rule="nonzero" stroke="none" stroke-width="none" stroke-linecap="none" stroke-linejoin="miter" stroke-miterlimit="10" stroke-dasharray="" stroke-dashoffset="0" font-family="none" font-weight="none" font-size="none" text-anchor="none" style="mix-blend-mode: normal"><path d="M228.4113,129.58334v-44" data-paper-data="{&quot;origPos&quot;:null}" fill="none" stroke="#000000" stroke-width="5" stroke-linecap="round"/><path d="M231.69816,105.61107c-0.26777,0.08687 -0.57494,0.14819 -0.92727,0.17559c-2.98835,0.23242 -3.24821,-2.44042 -3.24821,-2.44042l4.37753,-3.3574c1.52203,0.37127 3.10607,0.70371 4.50318,1.38802c1.23329,0.60407 3.4049,3.51611 3.6948,3.6671c0.8968,0.46708 3.56847,0.73033 4.54904,0.59763c0.51608,-0.06984 1.01802,-0.58201 1.49981,-0.40244c0.30796,0.11478 -0.52305,1.0484 -0.2604,0.86439c2.05956,-1.4428 1.12233,-5.41284 1.12233,-7.81901c0,-0.73731 -0.10697,-1.50771 -0.17718,-2.21644c-1.3352,0.65024 -2.69046,1.13472 -4.23562,1.36828c-6.22368,0.94075 -10.28158,-1.29564 -15.08479,-4.5177c0,0 -2.3997,-1.60976 -0.59993,-3.7561c1.79978,-2.14634 4.19948,-0.53659 4.19948,-0.53659c3.90082,2.61673 7.07554,4.80863 12.06185,3.26279c0.70636,-0.21899 3.62279,-2.7486 4.27203,-2.5439c6.18945,1.95153 5.56341,4.3362 5.56341,8.93965c0,2.00192 0.56395,4.78057 0,6.70732c-1.44557,4.93878 -8.77826,7.91644 -14.0866,5.31375c-3.04723,-1.49406 -4.49538,-3.57708 -7.22349,-4.69455z" data-paper-data="{&quot;origPos&quot;:null}" fill="#000000" stroke="none" stroke-width="0.5" stroke-linecap="butt"/><path d="M230.21108,97.65651l15.2981,0.80488" data-paper-data="{&quot;origPos&quot;:null}" fill="none" stroke="#000000" stroke-width="5" stroke-linecap="round"/><path d="M243.70941,106.51016l-12.29848,-5.36585" data-paper-data="{&quot;origPos&quot;:null}" fill="none" stroke="#000000" stroke-width="5" stroke-linecap="round"/><path d="M247.30895,103.55894l-11.09862,-4.29268" data-paper-data="{&quot;origPos&quot;:null}" fill="none" stroke="#000000" stroke-width="5" stroke-linecap="round"/><path d="" data-paper-data="{&quot;origPos&quot;:null}" fill="#000000" stroke="none" stroke-width="0.5" stroke-linecap="butt"/><path d="" fill="#000000" stroke="none" stroke-width="0.5" stroke-linecap="butt"/><path d="" data-paper-data="{&quot;origPos&quot;:null}" fill="#000000" stroke="none" stroke-width="0.5" stroke-linecap="butt"/><path d="" data-paper-data="{&quot;origPos&quot;:null}" fill="#000000" stroke="none" stroke-width="0.5" stroke-linecap="butt"/><path d="" data-paper-data="{&quot;origPos&quot;:null}" fill="#000000" stroke="none" stroke-width="0.5" stroke-linecap="butt"/><path d="" fill="#000000" stroke="none" stroke-width="0.5" stroke-linecap="butt"/><path d="" data-paper-data="{&quot;origPos&quot;:null}" fill="#000000" stroke="none" stroke-width="0.5" stroke-linecap="butt"/><path d="" data-paper-data="{&quot;origPos&quot;:null}" fill="#000000" stroke="none" stroke-width="0.5" stroke-linecap="butt"/></g></g></svg>