<svg version="1.1" xmlns="http://www.w3.org/2000/svg" xmlns:xlink="http://www.w3.org/1999/xlink" width="28.65965" height="49"><g transform="translate(-225.5,-83.08334)"><g data-paper-data="{&quot;isPaintingLayer&quot;:true}" fill="none" fill-rule="nonzero" stroke="none" stroke-width="none" stroke-linecap="none" stroke-linejoin="miter" stroke-miterlimit="10" stroke-dasharray="" stroke-dashoffset="0" font-family="none" font-weight="none" font-size="none" text-anchor="none" style="mix-blend-mode: normal"><path d="" data-paper-data="{&quot;origPos&quot;:null}" fill="#000000" stroke="none" stroke-width="0.5" stroke-linecap="butt"/><path d="M228.1113,129.58334v-44" fill="none" stroke="#000000" stroke-width="5" stroke-linecap="round"/><path d="M231,110.08334c-0.3328,0 -0.6504,-0.06503 -0.94081,-0.18306c-0.31208,0.12757 -0.69171,0.19871 -1.15347,0.18129c-2.49822,-0.09427 -2.40394,-2.59249 -2.40394,-2.59249l3.71372,-2.68165c1.88356,-0.85617 3.84894,-2.38755 5.7845,-2.97408c2.53909,-0.76942 6.95487,0.09543 9.43715,0.68903c1.24812,0.29847 2.39796,0.64715 3.55287,1.09998c-0.01336,-0.8208 -0.04331,-1.63574 -0.10765,-2.47226c-0.0928,-1.27369 -0.56967,-3.73347 -0.45355,-4.88826c0.02082,-0.20704 0.7729,0.16169 0.62406,0.01626c-2.64106,-2.58057 -8.10109,-1.80272 -11.37475,-1.70109c-1.19641,0.03714 -3.54322,0.73597 -4.67936,0.36895c-0.15963,-0.05156 0.29979,-0.55151 0.1475,-0.48115c-0.80417,0.37153 -1.33334,1.16666 -2,1.75c0,0 -1.88144,1.64625 -3.5277,-0.23519c-1.64626,-1.88144 0.23518,-3.5277 0.23518,-3.5277c4.20834,-3.68229 10.20709,-2.86856 15.52126,-2.86856c2.44076,0 6.2944,0.36914 8.07213,2.30526c2.4962,2.71859 2.14517,5.52339 2.42051,8.878c0.14301,1.8592 0.13236,3.70322 0.13236,5.56674c0,0.41666 0.35922,1.03888 0,1.25c-5.00966,2.94431 -6.62736,0.07761 -11.31215,-0.56402c-1.90262,-0.26059 -4.78645,-0.60851 -6.68785,-0.18598c-0.1819,0.04042 0.58334,0.08334 0.5,0.25c-0.47544,0.95087 -2.2534,1.53228 -3.4909,1.98805c-0.45552,0.61401 -1.18584,1.01195 -2.0091,1.01195z" fill="#000000" stroke="none" stroke-width="0.5" stroke-linecap="butt"/><path d="M229.25,94.08334l18.5,2.5" fill="none" stroke="#000000" stroke-width="5" stroke-linecap="round"/><path d="M228,98.58334l21.5,1.75" fill="none" stroke="#000000" stroke-width="5" stroke-linecap="round"/><path d="M228.75,101.08334l19.5,0.75" fill="none" stroke="#000000" stroke-width="5" stroke-linecap="round"/><path d="M230.25,103.83334l1.25,-1" fill="none" stroke="#000000" stroke-width="5" stroke-linecap="round"/></g></g></svg>