<svg version="1.1" xmlns="http://www.w3.org/2000/svg" xmlns:xlink="http://www.w3.org/1999/xlink" width="26.88877" height="49"><g transform="translate(-225.6113,-82.1)"><g data-paper-data="{&quot;isPaintingLayer&quot;:true}" fill="none" fill-rule="nonzero" stroke="none" stroke-width="none" stroke-linecap="none" stroke-linejoin="miter" stroke-miterlimit="10" stroke-dasharray="" stroke-dashoffset="0" font-family="none" font-weight="none" font-size="none" text-anchor="none" style="mix-blend-mode: normal"><path d="" data-paper-data="{&quot;origPos&quot;:null}" fill="#000000" stroke="none" stroke-width="0.5" stroke-linecap="butt"/><path d="" fill="#000000" stroke="none" stroke-width="0.5" stroke-linecap="butt"/><path d="" data-paper-data="{&quot;origPos&quot;:null}" fill="#000000" stroke="none" stroke-width="0.5" stroke-linecap="butt"/><path d="" data-paper-data="{&quot;origPos&quot;:null}" fill="#000000" stroke="none" stroke-width="0.5" stroke-linecap="butt"/><path d="" data-paper-data="{&quot;origPos&quot;:null}" fill="#000000" stroke="none" stroke-width="0.5" stroke-linecap="butt"/><path d="" fill="#000000" stroke="none" stroke-width="0.5" stroke-linecap="butt"/><path d="" data-paper-data="{&quot;origPos&quot;:null}" fill="#000000" stroke="none" stroke-width="0.5" stroke-linecap="butt"/><path d="M228.1113,128.6v-44" data-paper-data="{&quot;origPos&quot;:null}" fill="none" stroke="#000000" stroke-width="5" stroke-linecap="round"/><path d="M232,103.08335c0.02998,0 0.05982,0.00053 0.08954,0.00157l0.6617,-0.23916c2.22471,-0.22247 4.28795,-0.01241 6.49876,-0.01241c1.98294,0.04712 3.8776,0.40215 5.82222,0.79032c0.71517,0.14276 1.92042,-0.47269 2.17779,0.20968c0.00009,0.00023 0.00017,0.00045 0.00026,0.00068c0.1019,0.08285 0.21859,0.35435 0.24974,0.24932c0.76066,-2.56507 -0.01645,-6.41339 -0.75365,-9.64477c-2.29057,1.09913 -4.5255,2.40557 -6.99635,2.89477c-4.5894,0.90866 -9.46016,-1.26514 -12.38144,-4.60374c0,0 -1.64626,-1.88144 0.23518,-3.5277c1.88144,-1.64626 3.5277,0.23518 3.5277,0.23518c2.09595,2.39536 5.24051,3.58668 8.61856,2.89626c2.15264,-0.43996 4.70964,-2.3299 6.95756,-3.32247c0.29678,-0.28172 0.71513,-0.51157 1.30215,-0.62898c0.97714,-0.19543 1.64269,0.07653 2.0898,0.47432c0.43229,0.3174 0.80239,0.82745 0.88392,1.64705c0.78735,3.95361 1.49989,8.17361 1.51657,12.20509c0.00614,1.48459 -0.47759,4.22055 -1.91987,5.01175c-4.11921,2.25969 -7.19431,-0.0945 -11.33013,0.11325c-2.06022,0 -3.95098,-0.21743 -6.00124,-0.01241l0.41004,-0.36716c-0.22467,0.1994 -0.48552,0.35893 -0.77147,0.46752c-0.69443,0.29517 -1.75115,0.43686 -2.73995,-0.65927c-0.00871,-0.0096 -0.01735,-0.01929 -0.02591,-0.02903c-0.97648,-1.10545 -0.71525,-2.13973 -0.3438,-2.79591c0.41558,-0.80409 1.25476,-1.35374 2.22232,-1.35374z" data-paper-data="{&quot;origPos&quot;:null}" fill="#000000" stroke="none" stroke-width="0.5" stroke-linecap="butt"/><path d="M230.5,96.08335l15.5,0.25" fill="none" stroke="#000000" stroke-width="5" stroke-linecap="round"/><path d="M229.5,100.58335l18,-0.5" fill="none" stroke="#000000" stroke-width="5" stroke-linecap="round"/><path d="M247.75,103.58335l-19,-0.75" fill="none" stroke="#000000" stroke-width="5" stroke-linecap="round"/></g></g></svg>