<svg version="1.1" xmlns="http://www.w3.org/2000/svg" xmlns:xlink="http://www.w3.org/1999/xlink" width="29.5817" height="49"><g transform="translate(-226.34463,-83.08333)"><g data-paper-data="{&quot;isPaintingLayer&quot;:true}" fill="none" fill-rule="nonzero" stroke="none" stroke-width="none" stroke-linecap="none" stroke-linejoin="miter" stroke-miterlimit="10" stroke-dasharray="" stroke-dashoffset="0" font-family="none" font-weight="none" font-size="none" text-anchor="none" style="mix-blend-mode: normal"><path d="" data-paper-data="{&quot;origPos&quot;:null}" fill="#000000" stroke="none" stroke-width="0.5" stroke-linecap="butt"/><path d="" fill="#000000" stroke="none" stroke-width="0.5" stroke-linecap="butt"/><path d="" data-paper-data="{&quot;origPos&quot;:null}" fill="#000000" stroke="none" stroke-width="0.5" stroke-linecap="butt"/><path d="M228.84463,129.58333v-44" fill="none" stroke="#000000" stroke-width="5" stroke-linecap="round"/><path d="M231.19564,110.10282c-2.19597,0.11961 -2.34314,-2.08791 -2.34314,-2.08791l2.61793,-2.38267c2.05568,0.14683 4.40678,0.65308 6.36685,-0.17176c3.16878,-1.33348 4.77829,-4.15638 8.69279,-3.37348c0.82401,0.35874 1.7107,0.59866 2.47203,1.07621c0.76147,0.47763 1.38953,1.21149 1.79152,2.01546c0.07465,0.14929 -0.60623,0.17116 -0.44788,0.22394c0.1651,0.05504 0.41488,-0.02226 0.63672,-0.08267c0.02575,-0.07191 0.04252,-0.12171 0.04621,-0.14015c0.20186,-1.00707 0.21283,-2.1149 0.21283,-3.13627c0,-1.49293 0,-2.98586 0,-4.47879c0,-0.74647 -0.43796,-1.63492 0,-2.2394c0.12869,-0.17762 0.63983,0.55684 0.55408,0.35495c-0.21741,-0.51183 -0.69162,-1.03948 -1.18341,-1.55021c-0.05977,0.0593 -0.12095,0.11718 -0.18385,0.17333c-1.6213,1.4473 -3.99343,2.31914 -6.12895,2.5895c-5.09569,0.64513 -11.07014,-1.44843 -15.41968,-3.86484c0,0 -1.95759,-1.08754 -0.87004,-3.04513c1.08754,-1.95759 3.04513,-0.87004 3.04513,-0.87004c3.82075,2.12264 8.77972,3.84815 13.24459,3.30122c1.27745,-0.15648 2.76281,-1.05966 3.72439,-1.88929c0.45758,-0.39478 -0.88994,-1.24586 0.7544,-1.24586c1.44937,0 2.83657,0.59717 4.25485,0.89576c0.51866,0.69155 1.83504,1.77847 2.13319,2.55626c1.12802,2.94269 0.71058,7.3016 0.55408,10.43224c-0.0539,1.07818 -0.08352,4.43844 -0.9902,5.12228c-2.81116,2.12023 -3.93603,2.01205 -6.62374,0.47621c-0.84754,-0.48431 -2.95387,-3.63126 -2.45464,-2.28288c-2.17355,-0.43471 -3.4407,1.97075 -5.63934,2.89683c-2.9049,1.22356 -5.75474,0.94662 -8.81673,0.72717z" data-paper-data="{&quot;origPos&quot;:null}" fill="#000000" stroke="none" stroke-width="0.5" stroke-linecap="butt"/><path d="M230.73333,94.58335l12.25,3.75l8,-2l-1,6.75l-5.75,-3.25l-10.5,5.5l-0.25,-7.5l4.75,2.25" fill="none" stroke="#000000" stroke-width="5" stroke-linecap="round"/></g></g></svg>